<svg xmlns="http://www.w3.org/2000/svg" viewBox="0 0 180 180">
  <rect width="180" height="180" rx="36" fill="#000000"/>
  <g transform="translate(36 36) scale(1.505)">
    <path fill="#00c6d7" fill-rule="evenodd" d="M44.76,35.89c-4.87,0-8.34-3.06-8.89-7.64-.55,4.58-4.03,7.64-8.89,7.64,4.86,0,8.34,3.06,8.89,7.64.55-4.58,4.03-7.64,8.89-7.64h0ZM0,30.99h21.27L6.32,15.28,15.33,6.27l15.14,15.14V0h10.79v21.42l15.14-15.14,9,9-15.27,15.71h21.62v9.81h-21.62l15.27,15.71-9,9-15.14-15.14v21.42h-10.79v-21.42l-15.14,15.14-9-9,14.94-15.71H0v-9.81Z"/>
  </g>
</svg>
